<?xml version="1.0" encoding="UTF-8"?>
<svg id="Layer_1" xmlns="http://www.w3.org/2000/svg" viewBox="0 0 792 792">
  <defs>
    <style>
      .cls-1 {
        fill: #fdfbdd;
      }

      .cls-2 {
        fill: #2e2833;
      }
    </style>
  </defs>
  <rect class="cls-2" x="0" y="0" width="792" height="792" rx="297.47" ry="297.47"/>
  <g>
    <path class="cls-1" d="M396,379.74l224.34-224.34-45.95-45.95c-26.82-26.82-70.31-26.82-97.13,0l-81.26,81.26-81.26-81.26c-26.82-26.82-70.31-26.82-97.13,0l-45.95,45.95,224.34,224.34Z"/>
    <path class="cls-1" d="M636.61,620.34l45.95-45.95c26.82-26.82,26.82-70.31,0-97.13l-81.26-81.26,81.26-81.26c26.82-26.82,26.82-70.31,0-97.13l-45.95-45.95-224.34,224.34,224.34,224.34Z"/>
    <path class="cls-1" d="M155.39,171.66l-45.95,45.95c-26.82,26.82-26.82,70.31,0,97.13l81.26,81.26-81.26,81.26c-26.82,26.82-26.82,70.31,0,97.13l45.95,45.95,224.34-224.34-224.34-224.34Z"/>
    <path class="cls-1" d="M396,412.26l-224.34,224.34,45.95,45.95c26.82,26.82,70.31,26.82,97.13,0l81.26-81.26,81.26,81.26c26.82,26.82,70.31,26.82,97.13,0l45.95-45.95-224.34-224.34Z"/>
  </g>
  <g>
    <g>
      <path class="cls-2" d="M396.21,524.98c-71.12,0-128.98-57.86-128.98-128.98s57.86-128.98,128.98-128.98,128.98,57.86,128.98,128.98-57.86,128.98-128.98,128.98ZM396.21,339.02c-31.42,0-56.98,25.56-56.98,56.98s25.56,56.98,56.98,56.98,56.98-25.56,56.98-56.98-25.56-56.98-56.98-56.98Z"/>
      <path class="cls-2" d="M396.21,278.02c65.05,0,117.98,52.92,117.98,117.98s-52.92,117.98-117.98,117.98-117.98-52.92-117.98-117.98,52.92-117.98,117.98-117.98M396.21,463.98c37.48,0,67.98-30.49,67.98-67.98s-30.49-67.98-67.98-67.98-67.98,30.49-67.98,67.98,30.49,67.98,67.98,67.98M396.21,256.02c-77.18,0-139.98,62.79-139.98,139.98s62.79,139.98,139.98,139.98,139.98-62.79,139.98-139.98-62.79-139.98-139.98-139.98h0ZM396.21,441.98c-25.35,0-45.98-20.62-45.98-45.98s20.62-45.98,45.98-45.98,45.98,20.62,45.98,45.98-20.62,45.98-45.98,45.98h0Z"/>
    </g>
    <g>
      <path class="cls-2" d="M396,470.98c-41.34,0-74.98-33.63-74.98-74.98s33.63-74.98,74.98-74.98,74.98,33.63,74.98,74.98-33.63,74.98-74.98,74.98ZM396,393.02c-1.64,0-2.98,1.33-2.98,2.98s1.33,2.98,2.98,2.98,2.98-1.33,2.98-2.98-1.33-2.98-2.98-2.98Z"/>
      <path class="cls-2" d="M396,332.02c35.28,0,63.98,28.7,63.98,63.98s-28.7,63.98-63.98,63.98-63.98-28.7-63.98-63.98,28.7-63.98,63.98-63.98M396,409.98c7.71,0,13.98-6.27,13.98-13.98s-6.27-13.98-13.98-13.98-13.98,6.27-13.98,13.98,6.27,13.98,13.98,13.98M396,310.02c-47.41,0-85.98,38.57-85.98,85.98s38.57,85.98,85.98,85.98,85.98-38.57,85.98-85.98-38.57-85.98-85.98-85.98h0Z"/>
    </g>
    <g>
      <path class="cls-2" d="M157.14,524.98c-71.43,0-129.87-57.52-130.27-128.22-.2-34.55,13.14-67.1,37.55-91.65,24.42-24.56,56.88-38.08,91.42-38.08.99,0,1.98.01,2.98.04v-138.8c0-19.46,15.83-35.29,35.29-35.29h55.42c19.46,0,35.29,15.83,35.29,35.29v361.42c0,19.46-15.83,35.29-35.29,35.29h-92.39ZM155.84,393.02c-1.16,0-1.9.64-2.23,1.02-.41.46-.86,1.25-.71,2.39.16,1.25,1.26,2.35,2.51,2.51.15.02.29.03.44.03,1.16,0,1.9-.64,2.23-1.02.41-.46.86-1.25.71-2.39-.16-1.25-1.26-2.35-2.51-2.51-.15-.02-.29-.03-.44-.03Z"/>
      <path class="cls-2" d="M249.53,103.98c13.41,0,24.29,10.87,24.29,24.29v361.42c0,13.41-10.87,24.29-24.29,24.29h-92.39c-65.1,0-118.9-52.19-119.27-117.29-.38-65.37,52.69-118.66,117.97-118.66,4.73,0,9.39.29,13.98.83v-150.59c0-13.41,10.87-24.29,24.29-24.29h55.42M223.82,299.63v-145.65h-4v142.95c1.35.88,2.69,1.78,4,2.71M155.84,463.98c4.79,0,9.46-.5,13.98-1.45v-4.1c-4.5,1.01-9.17,1.56-13.98,1.56-35.28,0-63.98-28.7-63.98-63.98s28.7-63.98,63.98-63.98c4.8,0,9.47.55,13.98,1.56v-4.1c-4.51-.95-9.19-1.45-13.98-1.45-37.48,0-67.98,30.49-67.98,67.98s30.49,67.98,67.98,67.98M155.84,409.98c8.3,0,14.94-7.28,13.86-15.8-.79-6.22-5.82-11.25-12.04-12.04-.61-.08-1.22-.12-1.82-.12-8.3,0-14.94,7.28-13.86,15.8.79,6.22,5.82,11.25,12.04,12.04.61.08,1.22.12,1.82.12M249.53,81.98h-55.42c-25.52,0-46.29,20.77-46.29,46.29v127.99c-16.11.91-31.76,4.56-46.63,10.88-16.71,7.11-31.71,17.28-44.57,30.21-12.86,12.94-22.94,27.99-29.95,44.74-7.27,17.37-10.91,35.79-10.8,54.73.21,37.32,15.12,72.35,41.97,98.65,26.68,26.12,61.94,40.51,99.3,40.51h92.39c25.52,0,46.29-20.77,46.29-46.29V128.26c0-25.52-20.77-46.29-46.29-46.29h0Z"/>
    </g>
    <g>
      <path class="cls-2" d="M635.45,524.97c-70.73-.38-128.27-58.84-128.27-130.31v-92.31c0-19.48,15.85-35.33,35.33-35.33h55.75c19.48,0,35.33,15.85,35.33,35.33v93.65c0,1.64,1.33,2.98,2.98,2.98h.15c1.53-.08,2.82-1.64,2.82-3.42v-93.2c0-19.48,15.85-35.33,35.33-35.33h54.93c19.48,0,35.33,15.85,35.33,35.33v93.65c0,71.12-57.86,128.98-128.97,128.98h-.71Z"/>
      <path class="cls-2" d="M729.8,278.02c13.44,0,24.33,10.89,24.33,24.33v93.64c0,65.05-52.92,117.98-117.98,117.98-.22,0-.43,0-.65,0-65.12-.35-117.33-54.19-117.33-119.31v-92.31c0-13.44,10.89-24.33,24.33-24.33h55.75c13.44,0,24.33,10.89,24.33,24.33v93.64c0,7.71,6.27,13.98,13.98,13.98.22,0,.44,0,.67-.02,7.53-.35,13.31-6.86,13.31-14.4v-93.2c0-13.44,10.89-24.33,24.33-24.33h54.93M636.57,459.98c-.32,0-.64,0-.96,0-35.13-.52-63.02-29.85-63.02-64.98v-66.92s-.02-.04-.04-.04h-4.33s-.04.02-.04.04v66.86c0,37.32,29.64,68.49,66.96,69.04.34,0,.68,0,1.02,0,37.48,0,67.98-30.5,67.98-67.98v-67.93s-.02-.04-.04-.04h-3.5s-.04.02-.04.04v67.93c0,35.28-28.7,63.98-63.97,63.98M729.8,256.02h-54.93c-15.9,0-29.96,8.05-38.31,20.29-8.35-12.24-22.4-20.29-38.31-20.29h-55.75c-25.55,0-46.33,20.78-46.33,46.33v92.31c0,37.37,14.39,72.65,40.52,99.34,26.3,26.87,61.35,41.77,98.68,41.98h.77c77.18,0,139.98-62.79,139.98-139.97v-93.64c0-25.55-20.78-46.33-46.33-46.33h0Z"/>
    </g>
  </g>
  <g>
    <path class="cls-1" d="M396.21,278.02c-65.05,0-117.98,52.92-117.98,117.98s52.92,117.98,117.98,117.98,117.98-52.92,117.98-117.98-52.92-117.98-117.98-117.98ZM396.21,463.98c-37.48,0-67.98-30.49-67.98-67.98s30.49-67.98,67.98-67.98,67.98,30.49,67.98,67.98-30.49,67.98-67.98,67.98Z"/>
    <path class="cls-1" d="M396,332.02c-35.28,0-63.98,28.7-63.98,63.98s28.7,63.98,63.98,63.98,63.98-28.7,63.98-63.98-28.7-63.98-63.98-63.98ZM396,409.98c-7.71,0-13.98-6.27-13.98-13.98s6.27-13.98,13.98-13.98,13.98,6.27,13.98,13.98-6.27,13.98-13.98,13.98Z"/>
    <path class="cls-1" d="M169.82,278.86c-4.58-.54-9.25-.83-13.98-.83-65.28,0-118.35,53.3-117.97,118.66s54.17,117.29,119.27,117.29h12.68s5.29,0,5.29,0h74.42c13.41,0,24.29-10.87,24.29-24.29V128.26c0-13.41-10.87-24.29-24.29-24.29h-55.42c-13.41,0-24.29,10.87-24.29,24.29v150.59ZM87.87,396c0-37.48,30.49-67.98,67.98-67.98,4.79,0,9.46.5,13.98,1.45v4.1c-4.5-1.01-9.17-1.56-13.98-1.56-35.28,0-63.98,28.7-63.98,63.98s28.7,63.98,63.98,63.98c4.8,0,9.47-.55,13.98-1.56v4.1c-4.51.95-9.19,1.45-13.98,1.45-37.48,0-67.98-30.49-67.98-67.98ZM169.7,394.18c1.16,9.13-6.55,16.84-15.68,15.68-6.22-.79-11.25-5.82-12.04-12.04-1.16-9.13,6.55-16.84,15.68-15.68,6.22.79,11.25,5.82,12.04,12.04ZM223.82,153.98v145.65c-1.31-.93-2.65-1.83-4-2.71v-142.95h4Z"/>
    <path class="cls-1" d="M650.55,302.36v93.2c0,7.54-5.78,14.05-13.31,14.4-8.01.37-14.64-6.03-14.64-13.96v-93.64c0-13.44-10.89-24.33-24.33-24.33h-55.75c-13.44,0-24.33,10.89-24.33,24.33v92.31c0,65.12,52.2,118.96,117.33,119.31,65.35.35,118.62-52.71,118.62-117.97v-93.64c0-13.44-10.89-24.33-24.33-24.33h-54.93c-13.44,0-24.33,10.89-24.33,24.33ZM704.13,396c0,37.82-31.05,68.53-68.99,67.97-37.32-.55-66.96-31.71-66.96-69.04v-66.86s.02-.04.04-.04h4.33s.04.02.04.04v66.92c0,35.13,27.89,64.46,63.02,64.98,35.71.52,64.93-28.37,64.93-63.97v-67.93s.02-.04.04-.04h3.5s.04.02.04.04v67.93Z"/>
  </g>
</svg>